<svg viewBox="0 0 200 200" xmlns="http://www.w3.org/2000/svg">
  <path fill="#8A3FFC" d="M45.8,-80.9C58.9,-71.8,68.6,-58.5,74.2,-44.3C79.8,-30.2,81.2,-15.1,80.4,-0.5C79.5,14.1,76.3,28.1,70.1,41.3C64,54.5,54.9,66.9,42.7,73.7C30.5,80.5,15.2,81.7,2.1,78.1C-11.1,74.5,-22.1,66,-36.3,60.3C-50.4,54.7,-67.7,51.9,-77,42.3C-86.4,32.7,-87.8,16.3,-85.2,1.5C-82.6,-13.3,-75.8,-26.6,-67,-37.1C-58.2,-47.6,-47.3,-55.4,-35.8,-65.3C-24.3,-75.3,-12.1,-87.6,2.1,-91.3C16.4,-95,32.8,-90.1,45.8,-80.9Z" transform="translate(100 100)" />
</svg>